<?xml version="1.0" encoding="UTF-8"?>
<svg id="Layer_1" data-name="Layer 1" xmlns="http://www.w3.org/2000/svg" width="2.96in" height="2.96in" viewBox="0 0 212.9 212.9">
  <defs>
    <style>
      .cls-1 {
        fill: #231f20;
      }
    </style>
  </defs>
  <rect class="cls-1" width="7.34" height="14.68"/>
  <rect class="cls-1" y="14.68" width="7.34" height="14.68"/>
  <rect class="cls-1" y="29.37" width="7.34" height="22.02"/>
  <rect class="cls-1" y="58.73" width="7.34" height="22.02"/>
  <rect class="cls-1" y="95.44" width="7.34" height="22.02"/>
  <rect class="cls-1" y="124.8" width="7.34" height="29.36"/>
  <rect class="cls-1" y="161.51" width="7.34" height="51.39"/>
  <rect class="cls-1" x="7.34" width="7.34" height="7.34"/>
  <rect class="cls-1" x="7.34" y="44.05" width="7.34" height="7.34"/>
  <rect class="cls-1" x="7.34" y="66.07" width="7.34" height="7.34"/>
  <rect class="cls-1" x="7.34" y="88.1" width="7.34" height="14.68"/>
  <rect class="cls-1" x="7.34" y="110.12" width="7.34" height="22.02"/>
  <rect class="cls-1" x="7.34" y="161.51" width="7.34" height="7.34"/>
  <rect class="cls-1" x="7.34" y="205.56" width="7.34" height="7.34"/>
  <rect class="cls-1" x="14.68" width="7.34" height="7.34"/>
  <rect class="cls-1" x="14.68" y="14.68" width="7.34" height="14.68"/>
  <rect class="cls-1" x="14.68" y="29.37" width="7.34" height="7.34"/>
  <rect class="cls-1" x="14.68" y="44.05" width="7.34" height="7.34"/>
  <rect class="cls-1" x="14.68" y="58.73" width="7.34" height="14.68"/>
  <rect class="cls-1" x="14.68" y="80.75" width="7.34" height="14.68"/>
  <rect class="cls-1" x="14.68" y="102.78" width="7.34" height="7.34"/>
  <rect class="cls-1" x="14.68" y="124.8" width="7.34" height="14.68"/>
  <rect class="cls-1" x="14.68" y="161.51" width="7.34" height="7.34"/>
  <rect class="cls-1" x="14.68" y="176.19" width="7.34" height="22.02"/>
  <rect class="cls-1" x="14.68" y="205.56" width="7.34" height="7.34"/>
  <rect class="cls-1" x="22.02" width="7.34" height="7.34"/>
  <rect class="cls-1" x="22.02" y="14.68" width="7.34" height="14.68"/>
  <rect class="cls-1" x="22.02" y="29.37" width="7.34" height="7.34"/>
  <rect class="cls-1" x="22.02" y="44.05" width="7.34" height="7.34"/>
  <rect class="cls-1" x="22.02" y="58.73" width="7.34" height="22.02"/>
  <rect class="cls-1" x="22.02" y="95.44" width="7.34" height="22.02"/>
  <rect class="cls-1" x="22.02" y="124.8" width="7.34" height="7.34"/>
  <rect class="cls-1" x="22.02" y="139.49" width="7.34" height="7.34"/>
  <rect class="cls-1" x="22.02" y="161.51" width="7.34" height="7.34"/>
  <rect class="cls-1" x="22.02" y="176.19" width="7.34" height="22.02"/>
  <rect class="cls-1" x="22.02" y="205.56" width="7.34" height="7.34"/>
  <rect class="cls-1" x="29.37" width="7.34" height="7.34"/>
  <rect class="cls-1" x="29.37" y="14.68" width="7.34" height="14.68"/>
  <rect class="cls-1" x="29.37" y="29.37" width="7.34" height="7.34"/>
  <rect class="cls-1" x="29.37" y="44.05" width="7.34" height="7.34"/>
  <rect class="cls-1" x="29.37" y="58.73" width="7.34" height="7.34"/>
  <rect class="cls-1" x="29.37" y="73.41" width="7.34" height="7.34"/>
  <rect class="cls-1" x="29.37" y="110.12" width="7.34" height="7.34"/>
  <rect class="cls-1" x="29.37" y="132.15" width="7.34" height="7.34"/>
  <rect class="cls-1" x="29.37" y="161.51" width="7.34" height="7.34"/>
  <rect class="cls-1" x="29.37" y="176.19" width="7.34" height="22.02"/>
  <rect class="cls-1" x="29.37" y="205.56" width="7.34" height="7.34"/>
  <rect class="cls-1" x="36.71" width="7.34" height="7.34"/>
  <rect class="cls-1" x="36.71" y="44.05" width="7.34" height="7.34"/>
  <rect class="cls-1" x="36.71" y="58.73" width="7.34" height="14.68"/>
  <rect class="cls-1" x="36.71" y="102.78" width="7.34" height="14.68"/>
  <rect class="cls-1" x="36.71" y="146.83" width="7.34" height="7.34"/>
  <rect class="cls-1" x="36.71" y="161.51" width="7.34" height="7.34"/>
  <rect class="cls-1" x="36.71" y="205.56" width="7.34" height="7.34"/>
  <rect class="cls-1" x="44.05" width="7.34" height="14.68"/>
  <rect class="cls-1" x="44.05" y="14.68" width="7.34" height="14.68"/>
  <rect class="cls-1" x="44.05" y="29.37" width="7.34" height="22.02"/>
  <rect class="cls-1" x="44.05" y="58.73" width="7.34" height="7.34"/>
  <rect class="cls-1" x="44.05" y="73.41" width="7.34" height="7.34"/>
  <rect class="cls-1" x="44.05" y="88.1" width="7.34" height="7.34"/>
  <rect class="cls-1" x="44.05" y="102.78" width="7.34" height="7.34"/>
  <rect class="cls-1" x="44.05" y="117.46" width="7.34" height="7.34"/>
  <rect class="cls-1" x="44.05" y="132.15" width="7.34" height="7.34"/>
  <rect class="cls-1" x="44.05" y="146.83" width="7.34" height="7.34"/>
  <rect class="cls-1" x="44.05" y="161.51" width="7.34" height="51.39"/>
  <rect class="cls-1" x="51.39" y="66.07" width="7.34" height="29.36"/>
  <rect class="cls-1" x="51.39" y="132.15" width="7.34" height="7.34"/>
  <rect class="cls-1" x="58.73" y="14.68" width="7.34" height="14.68"/>
  <rect class="cls-1" x="58.73" y="29.37" width="7.34" height="29.36"/>
  <rect class="cls-1" x="58.73" y="66.07" width="7.34" height="7.34"/>
  <rect class="cls-1" x="58.73" y="80.75" width="7.34" height="22.02"/>
  <rect class="cls-1" x="58.73" y="117.46" width="7.34" height="7.34"/>
  <rect class="cls-1" x="58.73" y="139.49" width="7.34" height="22.02"/>
  <rect class="cls-1" x="58.73" y="168.85" width="7.34" height="29.36"/>
  <rect class="cls-1" x="58.73" y="205.56" width="7.34" height="7.34"/>
  <rect class="cls-1" x="66.07" width="7.34" height="7.34"/>
  <rect class="cls-1" x="66.07" y="14.68" width="7.34" height="7.34"/>
  <rect class="cls-1" x="66.07" y="51.39" width="7.34" height="7.34"/>
  <rect class="cls-1" x="66.07" y="80.75" width="7.34" height="22.02"/>
  <rect class="cls-1" x="66.07" y="110.12" width="7.34" height="14.68"/>
  <rect class="cls-1" x="66.07" y="132.15" width="7.34" height="14.68"/>
  <rect class="cls-1" x="66.07" y="161.51" width="7.34" height="7.34"/>
  <rect class="cls-1" x="66.07" y="176.19" width="7.34" height="14.68"/>
  <rect class="cls-1" x="66.07" y="198.22" width="7.34" height="14.68"/>
  <rect class="cls-1" x="73.41" width="7.34" height="7.34"/>
  <rect class="cls-1" x="73.41" y="14.68" width="7.34" height="7.34"/>
  <rect class="cls-1" x="73.41" y="44.05" width="7.34" height="14.68"/>
  <rect class="cls-1" x="73.41" y="66.07" width="7.34" height="7.34"/>
  <rect class="cls-1" x="73.41" y="80.75" width="7.34" height="14.68"/>
  <rect class="cls-1" x="73.41" y="102.78" width="7.34" height="7.34"/>
  <rect class="cls-1" x="73.41" y="132.15" width="7.34" height="22.02"/>
  <rect class="cls-1" x="73.41" y="168.85" width="7.34" height="7.34"/>
  <rect class="cls-1" x="73.41" y="183.53" width="7.34" height="14.68"/>
  <rect class="cls-1" x="80.75" width="7.34" height="7.34"/>
  <rect class="cls-1" x="80.75" y="14.68" width="7.34" height="14.68"/>
  <rect class="cls-1" x="80.75" y="36.71" width="7.34" height="7.34"/>
  <rect class="cls-1" x="80.75" y="51.39" width="7.34" height="7.34"/>
  <rect class="cls-1" x="80.75" y="88.1" width="7.34" height="7.34"/>
  <rect class="cls-1" x="80.75" y="102.78" width="7.34" height="14.68"/>
  <rect class="cls-1" x="80.75" y="124.8" width="7.34" height="7.34"/>
  <rect class="cls-1" x="80.75" y="146.83" width="7.34" height="14.68"/>
  <rect class="cls-1" x="80.75" y="168.85" width="7.34" height="29.36"/>
  <rect class="cls-1" x="88.1" y="22.02" width="7.34" height="7.34"/>
  <rect class="cls-1" x="88.1" y="44.05" width="7.34" height="14.68"/>
  <rect class="cls-1" x="88.1" y="80.75" width="7.34" height="7.34"/>
  <rect class="cls-1" x="88.1" y="102.78" width="7.34" height="29.36"/>
  <rect class="cls-1" x="88.1" y="139.49" width="7.34" height="14.68"/>
  <rect class="cls-1" x="88.1" y="161.51" width="7.34" height="14.68"/>
  <rect class="cls-1" x="88.1" y="205.56" width="7.34" height="7.34"/>
  <rect class="cls-1" x="95.44" width="7.34" height="14.68"/>
  <rect class="cls-1" x="95.44" y="22.02" width="7.34" height="7.34"/>
  <rect class="cls-1" x="95.44" y="29.37" width="7.34" height="14.68"/>
  <rect class="cls-1" x="95.44" y="66.07" width="7.34" height="22.02"/>
  <rect class="cls-1" x="95.44" y="124.8" width="7.34" height="22.02"/>
  <rect class="cls-1" x="95.44" y="183.53" width="7.34" height="7.34"/>
  <rect class="cls-1" x="95.44" y="205.56" width="7.34" height="7.34"/>
  <rect class="cls-1" x="102.78" y="7.34" width="7.34" height="7.34"/>
  <rect class="cls-1" x="102.78" y="14.68" width="7.34" height="14.68"/>
  <rect class="cls-1" x="102.78" y="44.05" width="7.34" height="14.68"/>
  <rect class="cls-1" x="102.78" y="73.41" width="7.34" height="7.34"/>
  <rect class="cls-1" x="102.78" y="88.1" width="7.34" height="7.34"/>
  <rect class="cls-1" x="102.78" y="110.12" width="7.34" height="7.34"/>
  <rect class="cls-1" x="102.78" y="124.8" width="7.34" height="14.68"/>
  <rect class="cls-1" x="102.78" y="146.83" width="7.34" height="7.34"/>
  <rect class="cls-1" x="102.78" y="168.85" width="7.34" height="7.34"/>
  <rect class="cls-1" x="102.78" y="183.53" width="7.34" height="7.34"/>
  <rect class="cls-1" x="102.78" y="198.22" width="7.34" height="14.68"/>
  <rect class="cls-1" x="110.12" y="7.34" width="7.34" height="7.34"/>
  <rect class="cls-1" x="110.12" y="36.71" width="7.34" height="7.34"/>
  <rect class="cls-1" x="110.12" y="58.73" width="7.34" height="7.34"/>
  <rect class="cls-1" x="110.12" y="73.41" width="7.34" height="7.34"/>
  <rect class="cls-1" x="110.12" y="102.78" width="7.34" height="14.68"/>
  <rect class="cls-1" x="110.12" y="132.15" width="7.34" height="7.34"/>
  <rect class="cls-1" x="110.12" y="161.51" width="7.34" height="7.34"/>
  <rect class="cls-1" x="110.12" y="176.19" width="7.34" height="7.34"/>
  <rect class="cls-1" x="110.12" y="190.88" width="7.34" height="7.34"/>
  <rect class="cls-1" x="117.46" width="7.34" height="14.68"/>
  <rect class="cls-1" x="117.46" y="14.68" width="7.34" height="7.34"/>
  <rect class="cls-1" x="117.46" y="29.37" width="7.34" height="7.34"/>
  <rect class="cls-1" x="117.46" y="44.05" width="7.34" height="7.34"/>
  <rect class="cls-1" x="117.46" y="66.07" width="7.34" height="22.02"/>
  <rect class="cls-1" x="117.46" y="102.78" width="7.34" height="14.68"/>
  <rect class="cls-1" x="117.46" y="124.8" width="7.34" height="22.02"/>
  <rect class="cls-1" x="117.46" y="154.17" width="7.34" height="14.68"/>
  <rect class="cls-1" x="117.46" y="183.53" width="7.34" height="7.34"/>
  <rect class="cls-1" x="117.46" y="198.22" width="7.34" height="7.34"/>
  <rect class="cls-1" x="124.8" width="7.34" height="7.34"/>
  <rect class="cls-1" x="124.8" y="22.02" width="7.34" height="7.34"/>
  <rect class="cls-1" x="124.8" y="29.37" width="7.34" height="7.34"/>
  <rect class="cls-1" x="124.8" y="58.73" width="7.34" height="7.34"/>
  <rect class="cls-1" x="124.8" y="88.1" width="7.34" height="14.68"/>
  <rect class="cls-1" x="124.8" y="117.46" width="7.34" height="7.34"/>
  <rect class="cls-1" x="124.8" y="146.83" width="7.34" height="7.34"/>
  <rect class="cls-1" x="124.8" y="176.19" width="7.34" height="7.34"/>
  <rect class="cls-1" x="124.8" y="205.56" width="7.34" height="7.34"/>
  <rect class="cls-1" x="132.15" width="7.34" height="7.34"/>
  <rect class="cls-1" x="132.15" y="14.68" width="7.34" height="7.34"/>
  <rect class="cls-1" x="132.15" y="29.37" width="7.34" height="22.02"/>
  <rect class="cls-1" x="132.15" y="80.75" width="7.34" height="7.34"/>
  <rect class="cls-1" x="132.15" y="102.78" width="7.34" height="7.34"/>
  <rect class="cls-1" x="132.15" y="124.8" width="7.34" height="14.68"/>
  <rect class="cls-1" x="132.15" y="161.51" width="7.34" height="14.68"/>
  <rect class="cls-1" x="132.15" y="190.88" width="7.34" height="22.02"/>
  <rect class="cls-1" x="139.49" width="7.34" height="7.34"/>
  <rect class="cls-1" x="139.49" y="22.02" width="7.34" height="7.34"/>
  <rect class="cls-1" x="139.49" y="29.37" width="7.34" height="7.34"/>
  <rect class="cls-1" x="139.49" y="51.39" width="7.34" height="7.34"/>
  <rect class="cls-1" x="139.49" y="66.07" width="7.34" height="7.34"/>
  <rect class="cls-1" x="139.49" y="88.1" width="7.34" height="14.68"/>
  <rect class="cls-1" x="139.49" y="110.12" width="7.34" height="7.34"/>
  <rect class="cls-1" x="139.49" y="124.8" width="7.34" height="7.34"/>
  <rect class="cls-1" x="139.49" y="139.49" width="7.34" height="7.34"/>
  <rect class="cls-1" x="139.49" y="154.17" width="7.34" height="22.02"/>
  <rect class="cls-1" x="139.49" y="183.53" width="7.34" height="14.68"/>
  <rect class="cls-1" x="139.49" y="205.56" width="7.34" height="7.34"/>
  <rect class="cls-1" x="146.83" width="7.34" height="14.68"/>
  <rect class="cls-1" x="146.83" y="29.37" width="7.34" height="7.34"/>
  <rect class="cls-1" x="146.83" y="44.05" width="7.34" height="7.34"/>
  <rect class="cls-1" x="146.83" y="66.07" width="7.34" height="14.68"/>
  <rect class="cls-1" x="146.83" y="95.44" width="7.34" height="14.68"/>
  <rect class="cls-1" x="146.83" y="117.46" width="7.34" height="22.02"/>
  <rect class="cls-1" x="146.83" y="146.83" width="7.34" height="58.73"/>
  <rect class="cls-1" x="154.17" y="80.75" width="7.34" height="7.34"/>
  <rect class="cls-1" x="154.17" y="95.44" width="7.34" height="22.02"/>
  <rect class="cls-1" x="154.17" y="124.8" width="7.34" height="7.34"/>
  <rect class="cls-1" x="154.17" y="146.83" width="7.34" height="7.34"/>
  <rect class="cls-1" x="154.17" y="176.19" width="7.34" height="7.34"/>
  <rect class="cls-1" x="154.17" y="198.22" width="7.34" height="14.68"/>
  <rect class="cls-1" x="161.51" width="7.34" height="14.68"/>
  <rect class="cls-1" x="161.51" y="14.68" width="7.34" height="14.68"/>
  <rect class="cls-1" x="161.51" y="29.37" width="7.34" height="22.02"/>
  <rect class="cls-1" x="161.51" y="58.73" width="7.34" height="14.68"/>
  <rect class="cls-1" x="161.51" y="95.44" width="7.34" height="14.68"/>
  <rect class="cls-1" x="161.51" y="124.8" width="7.34" height="7.34"/>
  <rect class="cls-1" x="161.51" y="146.83" width="7.34" height="7.34"/>
  <rect class="cls-1" x="161.51" y="161.51" width="7.34" height="7.34"/>
  <rect class="cls-1" x="161.51" y="176.19" width="7.34" height="7.34"/>
  <rect class="cls-1" x="161.51" y="190.88" width="7.34" height="7.34"/>
  <rect class="cls-1" x="168.85" width="7.34" height="7.34"/>
  <rect class="cls-1" x="168.85" y="44.05" width="7.34" height="7.34"/>
  <rect class="cls-1" x="168.85" y="58.73" width="7.34" height="14.68"/>
  <rect class="cls-1" x="168.85" y="80.75" width="7.34" height="7.34"/>
  <rect class="cls-1" x="168.85" y="102.78" width="7.34" height="51.39"/>
  <rect class="cls-1" x="168.85" y="176.19" width="7.34" height="36.71"/>
  <rect class="cls-1" x="176.19" width="7.34" height="7.34"/>
  <rect class="cls-1" x="176.19" y="14.68" width="7.34" height="14.68"/>
  <rect class="cls-1" x="176.19" y="29.37" width="7.34" height="7.34"/>
  <rect class="cls-1" x="176.19" y="44.05" width="7.34" height="7.34"/>
  <rect class="cls-1" x="176.19" y="58.73" width="7.34" height="14.68"/>
  <rect class="cls-1" x="176.19" y="95.44" width="7.34" height="7.34"/>
  <rect class="cls-1" x="176.19" y="110.12" width="7.34" height="7.34"/>
  <rect class="cls-1" x="176.19" y="124.8" width="7.34" height="7.34"/>
  <rect class="cls-1" x="176.19" y="139.49" width="7.34" height="44.05"/>
  <rect class="cls-1" x="176.19" y="190.88" width="7.34" height="7.34"/>
  <rect class="cls-1" x="176.19" y="205.56" width="7.34" height="7.34"/>
  <rect class="cls-1" x="183.53" width="7.34" height="7.34"/>
  <rect class="cls-1" x="183.53" y="14.68" width="7.34" height="14.68"/>
  <rect class="cls-1" x="183.53" y="29.37" width="7.34" height="7.34"/>
  <rect class="cls-1" x="183.53" y="44.05" width="7.34" height="7.34"/>
  <rect class="cls-1" x="183.53" y="58.73" width="7.34" height="7.34"/>
  <rect class="cls-1" x="183.53" y="80.75" width="7.34" height="14.68"/>
  <rect class="cls-1" x="183.53" y="102.78" width="7.34" height="7.34"/>
  <rect class="cls-1" x="183.53" y="117.46" width="7.34" height="7.34"/>
  <rect class="cls-1" x="183.53" y="154.17" width="7.34" height="14.68"/>
  <rect class="cls-1" x="183.53" y="183.53" width="7.34" height="29.36"/>
  <rect class="cls-1" x="190.88" width="7.34" height="7.34"/>
  <rect class="cls-1" x="190.88" y="14.68" width="7.34" height="14.68"/>
  <rect class="cls-1" x="190.88" y="29.37" width="7.34" height="7.34"/>
  <rect class="cls-1" x="190.88" y="44.05" width="7.34" height="7.34"/>
  <rect class="cls-1" x="190.88" y="58.73" width="7.34" height="7.34"/>
  <rect class="cls-1" x="190.88" y="88.1" width="7.34" height="7.34"/>
  <rect class="cls-1" x="190.88" y="102.78" width="7.34" height="7.34"/>
  <rect class="cls-1" x="190.88" y="117.46" width="7.34" height="22.02"/>
  <rect class="cls-1" x="190.88" y="146.83" width="7.34" height="22.02"/>
  <rect class="cls-1" x="190.88" y="176.19" width="7.34" height="22.02"/>
  <rect class="cls-1" x="190.88" y="205.56" width="7.34" height="7.34"/>
  <rect class="cls-1" x="198.22" width="7.34" height="7.34"/>
  <rect class="cls-1" x="198.22" y="44.05" width="7.34" height="7.34"/>
  <rect class="cls-1" x="198.22" y="80.75" width="7.34" height="7.34"/>
  <rect class="cls-1" x="198.22" y="110.12" width="7.34" height="7.34"/>
  <rect class="cls-1" x="198.22" y="139.49" width="7.34" height="22.02"/>
  <rect class="cls-1" x="198.22" y="168.85" width="7.34" height="7.34"/>
  <rect class="cls-1" x="198.22" y="183.53" width="7.34" height="22.02"/>
  <rect class="cls-1" x="205.56" width="7.34" height="14.68"/>
  <rect class="cls-1" x="205.56" y="14.68" width="7.34" height="14.68"/>
  <rect class="cls-1" x="205.56" y="29.37" width="7.34" height="22.02"/>
  <rect class="cls-1" x="205.56" y="66.07" width="7.34" height="7.34"/>
  <rect class="cls-1" x="205.56" y="95.44" width="7.34" height="7.34"/>
  <rect class="cls-1" x="205.56" y="124.8" width="7.34" height="7.34"/>
  <rect class="cls-1" x="205.56" y="146.83" width="7.34" height="14.68"/>
  <rect class="cls-1" x="205.56" y="168.85" width="7.34" height="7.34"/>
  <rect class="cls-1" x="205.56" y="183.53" width="7.34" height="7.34"/>
</svg>