<?xml version="1.0" encoding="UTF-8"?>
<svg id="Layer_2" data-name="Layer 2" xmlns="http://www.w3.org/2000/svg" width="347.71" height="217.17" xmlns:xlink="http://www.w3.org/1999/xlink" viewBox="0 0 347.71 217.17">
  <defs>
    <style>
      .cls-1 {
        fill: url(#linear-gradient-8);
      }

      .cls-2 {
        fill: url(#linear-gradient-7);
      }

      .cls-3 {
        fill: url(#linear-gradient-5);
      }

      .cls-4 {
        fill: url(#linear-gradient-6);
      }

      .cls-5 {
        fill: url(#linear-gradient-9);
      }

      .cls-6 {
        fill: url(#linear-gradient-4);
      }

      .cls-7 {
        fill: url(#linear-gradient-3);
      }

      .cls-8 {
        fill: url(#linear-gradient-2);
      }

      .cls-9 {
        fill: url(#linear-gradient);
      }

      .cls-10 {
        fill: url(#linear-gradient-43);
      }

      .cls-11 {
        fill: url(#linear-gradient-40);
      }

      .cls-12 {
        fill: url(#linear-gradient-41);
      }

      .cls-13 {
        fill: url(#linear-gradient-42);
      }

      .cls-14 {
        fill: url(#linear-gradient-48);
      }

      .cls-15 {
        fill: url(#linear-gradient-45);
      }

      .cls-16 {
        fill: url(#linear-gradient-47);
      }

      .cls-17 {
        fill: url(#linear-gradient-44);
      }

      .cls-18 {
        fill: url(#linear-gradient-46);
      }

      .cls-19 {
        fill: url(#linear-gradient-10);
      }

      .cls-20 {
        fill: url(#linear-gradient-11);
      }

      .cls-21 {
        fill: url(#linear-gradient-12);
      }

      .cls-22 {
        fill: url(#linear-gradient-13);
      }

      .cls-23 {
        fill: url(#linear-gradient-19);
      }

      .cls-24 {
        fill: url(#linear-gradient-14);
      }

      .cls-25 {
        fill: url(#linear-gradient-21);
      }

      .cls-26 {
        fill: url(#linear-gradient-20);
      }

      .cls-27 {
        fill: url(#linear-gradient-22);
      }

      .cls-28 {
        fill: url(#linear-gradient-23);
      }

      .cls-29 {
        fill: url(#linear-gradient-28);
      }

      .cls-30 {
        fill: url(#linear-gradient-25);
      }

      .cls-31 {
        fill: url(#linear-gradient-32);
      }

      .cls-32 {
        fill: url(#linear-gradient-31);
      }

      .cls-33 {
        fill: url(#linear-gradient-33);
      }

      .cls-34 {
        fill: url(#linear-gradient-30);
      }

      .cls-35 {
        fill: url(#linear-gradient-15);
      }

      .cls-36 {
        fill: url(#linear-gradient-16);
      }

      .cls-37 {
        fill: url(#linear-gradient-17);
      }

      .cls-38 {
        fill: url(#linear-gradient-18);
      }

      .cls-39 {
        fill: url(#linear-gradient-35);
      }

      .cls-40 {
        fill: url(#linear-gradient-34);
      }

      .cls-41 {
        fill: url(#linear-gradient-36);
      }

      .cls-42 {
        fill: url(#linear-gradient-38);
      }

      .cls-43 {
        fill: url(#linear-gradient-27);
      }

      .cls-44 {
        fill: url(#linear-gradient-24);
      }

      .cls-45 {
        fill: url(#linear-gradient-26);
      }

      .cls-46 {
        fill: url(#linear-gradient-29);
      }

      .cls-47 {
        fill: url(#linear-gradient-37);
      }

      .cls-48 {
        fill: url(#linear-gradient-39);
      }
    </style>
    <linearGradient id="linear-gradient" x1="-3.46" y1="85.92" x2="348.61" y2="85.92" gradientUnits="userSpaceOnUse">
      <stop offset="0" stop-color="#ba803a"/>
      <stop offset=".5" stop-color="#f9d08e"/>
      <stop offset="1" stop-color="#ba8039"/>
    </linearGradient>
    <linearGradient id="linear-gradient-2" x1="-3.46" y1="47.38" x2="348.61" y2="47.38" xlink:href="#linear-gradient"/>
    <linearGradient id="linear-gradient-3" x1="-3.46" y1="115.01" x2="348.61" y2="115.01" xlink:href="#linear-gradient"/>
    <linearGradient id="linear-gradient-4" x1="-3.46" y1="89.24" x2="348.61" y2="89.24" xlink:href="#linear-gradient"/>
    <linearGradient id="linear-gradient-5" y1="153.06" x2="348.61" y2="153.06" xlink:href="#linear-gradient"/>
    <linearGradient id="linear-gradient-6" y1="143.97" x2="348.61" y2="143.97" xlink:href="#linear-gradient"/>
    <linearGradient id="linear-gradient-7" x1="-3.46" y1="153.31" x2="348.61" y2="153.31" xlink:href="#linear-gradient"/>
    <linearGradient id="linear-gradient-8" y1="144.33" x2="348.61" y2="144.33" xlink:href="#linear-gradient"/>
    <linearGradient id="linear-gradient-9" x1="-3.46" y1="115.23" x2="348.61" y2="115.23" xlink:href="#linear-gradient"/>
    <linearGradient id="linear-gradient-10" x1="-3.46" y1="89.55" x2="348.61" y2="89.55" xlink:href="#linear-gradient"/>
    <linearGradient id="linear-gradient-11" x1="-3.46" y1="86.06" x2="348.61" y2="86.06" xlink:href="#linear-gradient"/>
    <linearGradient id="linear-gradient-12" x1="-3.46" y1="47.59" x2="348.61" y2="47.59" xlink:href="#linear-gradient"/>
    <linearGradient id="linear-gradient-13" x1="-3.46" y1="70.25" x2="348.61" y2="70.25" xlink:href="#linear-gradient"/>
    <linearGradient id="linear-gradient-14" x1="-3.46" y1="24.84" x2="348.61" y2="24.84" xlink:href="#linear-gradient"/>
    <linearGradient id="linear-gradient-15" y1="70.2" x2="348.61" y2="70.2" xlink:href="#linear-gradient"/>
    <linearGradient id="linear-gradient-16" y1="24.77" x2="348.61" y2="24.77" xlink:href="#linear-gradient"/>
    <linearGradient id="linear-gradient-17" x1="-3.46" y1="72.9" x2="348.61" y2="72.9" xlink:href="#linear-gradient"/>
    <linearGradient id="linear-gradient-18" y1="91.68" x2="348.61" y2="91.68" xlink:href="#linear-gradient"/>
    <linearGradient id="linear-gradient-19" y1="96.57" x2="348.61" y2="96.57" xlink:href="#linear-gradient"/>
    <linearGradient id="linear-gradient-20" y1="110.96" x2="348.61" y2="110.96" xlink:href="#linear-gradient"/>
    <linearGradient id="linear-gradient-21" x1="-3.46" y1="132" x2="348.61" y2="132" xlink:href="#linear-gradient"/>
    <linearGradient id="linear-gradient-22" x1="-3.46" y1="139.8" x2="348.61" y2="139.8" xlink:href="#linear-gradient"/>
    <linearGradient id="linear-gradient-23" y1="132" x2="348.61" y2="132" xlink:href="#linear-gradient"/>
    <linearGradient id="linear-gradient-24" y1="139.75" x2="348.61" y2="139.75" xlink:href="#linear-gradient"/>
    <linearGradient id="linear-gradient-25" x1="-3.46" y1="96.58" x2="348.61" y2="96.58" xlink:href="#linear-gradient"/>
    <linearGradient id="linear-gradient-26" x1="-3.46" y1="110.92" x2="348.61" y2="110.92" xlink:href="#linear-gradient"/>
    <linearGradient id="linear-gradient-27" x1="-3.46" y1="72.9" x2="348.61" y2="72.9" xlink:href="#linear-gradient"/>
    <linearGradient id="linear-gradient-28" x1="-3.46" y1="91.66" x2="348.61" y2="91.66" xlink:href="#linear-gradient"/>
    <linearGradient id="linear-gradient-29" x1="-3.46" y1="64.59" x2="348.61" y2="64.59" xlink:href="#linear-gradient"/>
    <linearGradient id="linear-gradient-30" x1="-3.46" y1="84.91" x2="348.61" y2="84.91" xlink:href="#linear-gradient"/>
    <linearGradient id="linear-gradient-31" y1="174.26" x2="348.61" y2="174.26" xlink:href="#linear-gradient"/>
    <linearGradient id="linear-gradient-32" y1="192.21" x2="348.61" y2="192.21" xlink:href="#linear-gradient"/>
    <linearGradient id="linear-gradient-33" y1="210.16" x2="348.61" y2="210.16" xlink:href="#linear-gradient"/>
    <linearGradient id="linear-gradient-34" x1="-3.46" y1="61.86" x2="348.61" y2="61.86" gradientTransform="translate(149.88 -77.74) rotate(73.3)" xlink:href="#linear-gradient"/>
    <linearGradient id="linear-gradient-35" y1="88.02" x2="348.61" y2="88.02" xlink:href="#linear-gradient"/>
    <linearGradient id="linear-gradient-36" y1="88.02" x2="348.61" y2="88.02" xlink:href="#linear-gradient"/>
    <linearGradient id="linear-gradient-37" y1="52.47" x2="348.61" y2="52.47" gradientTransform="translate(87.99 -107.48) rotate(45)" xlink:href="#linear-gradient"/>
    <linearGradient id="linear-gradient-38" y1="61.71" x2="348.61" y2="61.71" gradientTransform="translate(40.68 -79.94) rotate(22.62)" xlink:href="#linear-gradient"/>
    <linearGradient id="linear-gradient-39" y1="127.46" x2="348.61" y2="127.46" gradientTransform="translate(54.89 -13.98) rotate(23.08)" xlink:href="#linear-gradient"/>
    <linearGradient id="linear-gradient-40" y1="127.37" x2="348.61" y2="127.37" gradientTransform="translate(291.01 -185.55) rotate(66.92)" xlink:href="#linear-gradient"/>
    <linearGradient id="linear-gradient-41" y1="140.23" x2="348.61" y2="140.23" gradientTransform="translate(83.61 24.75) rotate(36.21)" xlink:href="#linear-gradient"/>
    <linearGradient id="linear-gradient-42" y1="139.77" x2="348.61" y2="139.77" gradientTransform="translate(253.44 -220.15) rotate(53.79)" xlink:href="#linear-gradient"/>
    <linearGradient id="linear-gradient-43" y1="77.41" x2="348.61" y2="77.41" gradientTransform="translate(335.8 -249.21) rotate(79.46)" xlink:href="#linear-gradient"/>
    <linearGradient id="linear-gradient-44" y1="77.76" x2="348.61" y2="77.76" gradientTransform="translate(14.72 -4.14) rotate(10.54)" xlink:href="#linear-gradient"/>
    <linearGradient id="linear-gradient-45" y1="29.88" x2="348.61" y2="29.88" gradientTransform="translate(100.96 -49.83) rotate(85.31)" xlink:href="#linear-gradient"/>
    <linearGradient id="linear-gradient-46" y1="29.68" x2="348.61" y2="29.68" gradientTransform="translate(3.33 -21.99) rotate(4.69)" xlink:href="#linear-gradient"/>
    <linearGradient id="linear-gradient-47" y1="3.87" x2="348.61" y2="3.87" gradientTransform="translate(29.74 -103.25) rotate(30)" xlink:href="#linear-gradient"/>
    <linearGradient id="linear-gradient-48" x1="-3.46" y1="3.91" x2="348.61" y2="3.91" gradientTransform="translate(73.33 -119.2) rotate(60)" xlink:href="#linear-gradient"/>
  </defs>
  <g id="Layer_1-2" data-name="Layer 1">
    <g>
      <path class="cls-9" d="M216.83,109.38c.31.21.67.32,1.04.32h0c.64,0,1.23-.32,1.58-.85l29.16-43.76c.28-.42.38-.93.28-1.43-.1-.5-.39-.93-.81-1.21-.31-.21-.68-.32-1.05-.32-.64,0-1.23.32-1.58.85l-29.16,43.75c-.58.87-.34,2.05.53,2.63Z"/>
      <path class="cls-8" d="M253.15,54.88c.31.21.67.32,1.04.32h0c.64,0,1.23-.32,1.58-.85l7.89-11.83c.28-.42.38-.93.28-1.43-.1-.5-.39-.93-.81-1.21-.31-.21-.68-.32-1.05-.32-.64,0-1.23.32-1.58.85l-7.88,11.83c-.58.87-.34,2.05.53,2.63Z"/>
      <path class="cls-7" d="M237.92,129.28c-.1.5,0,1,.29,1.42.35.52.94.84,1.57.84h0c.38,0,.74-.11,1.06-.32l43.68-29.27c.87-.58,1.1-1.76.52-2.63-.35-.53-.94-.84-1.58-.84-.38,0-.74.11-1.06.32l-43.68,29.27c-.42.28-.71.71-.81,1.21Z"/>
      <path class="cls-6" d="M294.19,95.1h0c.38,0,.74-.11,1.05-.32l11.81-7.91c.87-.58,1.1-1.76.52-2.63-.35-.53-.94-.84-1.58-.84-.38,0-.74.11-1.05.32l-11.81,7.91c-.87.58-1.1,1.77-.52,2.63.35.52.94.84,1.57.84Z"/>
      <path class="cls-3" d="M251.65,160.12h0c.12,0,.25-.01.38-.04l51.56-10.32c.5-.1.93-.39,1.21-.81.28-.42.38-.93.28-1.43-.18-.88-.96-1.53-1.86-1.53-.12,0-.25.01-.37.04l-51.56,10.32c-.5.1-.93.39-1.21.81-.28.42-.38.93-.28,1.43.18.88.96,1.52,1.85,1.53Z"/>
      <path class="cls-4" d="M315.87,147.26h0c.12,0,.25-.01.38-.04l13.94-2.79c.5-.1.93-.39,1.21-.81.28-.42.38-.93.28-1.43-.18-.88-.96-1.53-1.86-1.53-.12,0-.25.01-.37.04l-13.94,2.79c-.5.1-.93.39-1.21.81-.28.42-.38.93-.28,1.43.18.88.96,1.52,1.85,1.53Z"/>
      <path class="cls-2" d="M44.53,146.31c-.9,0-1.68.64-1.86,1.53-.1.5,0,1,.29,1.43.28.42.71.71,1.21.81l51.58,10.19c.12.02.24.04.36.04h0c.9,0,1.69-.64,1.86-1.53.1-.5,0-1-.29-1.43-.28-.42-.71-.71-1.21-.81l-51.58-10.19c-.13-.03-.25-.04-.37-.04Z"/>
      <path class="cls-1" d="M17.55,144.81l13.95,2.76c.12.02.24.04.36.04h0c.9,0,1.69-.64,1.86-1.53.1-.5,0-1-.28-1.42-.28-.42-.71-.71-1.21-.81l-13.95-2.76c-.13-.03-.25-.04-.37-.04-.9,0-1.68.64-1.86,1.53-.1.5,0,1,.29,1.43.28.42.71.71,1.21.81Z"/>
      <path class="cls-5" d="M63.11,102.23l43.76,29.16c.31.21.67.32,1.04.32h0c.64,0,1.23-.32,1.58-.85.58-.87.34-2.05-.53-2.63l-43.76-29.16c-.31-.21-.68-.32-1.05-.32-.64,0-1.23.32-1.58.85-.58.87-.34,2.05.53,2.63Z"/>
      <path class="cls-19" d="M40.54,87.18l11.83,7.88c.31.21.67.32,1.04.32h0c.64,0,1.23-.32,1.58-.85.58-.87.34-2.05-.53-2.63l-11.83-7.89c-.31-.21-.68-.32-1.05-.32-.64,0-1.23.32-1.58.85-.28.42-.38.93-.28,1.43.1.5.39.93.81,1.21Z"/>
      <path class="cls-20" d="M128.19,108.96c.35.52.94.84,1.57.84h0c.38,0,.74-.11,1.05-.32.87-.58,1.1-1.76.52-2.63l-29.27-43.68c-.35-.53-.94-.84-1.58-.84-.38,0-.74.11-1.05.32-.87.58-1.1,1.76-.52,2.63l29.27,43.68Z"/>
      <path class="cls-21" d="M91.74,54.55c.35.52.94.84,1.57.84h0c.38,0,.74-.11,1.06-.32.42-.28.71-.71.81-1.21.1-.5,0-1-.29-1.42l-7.91-11.81c-.35-.53-.94-.84-1.58-.84-.38,0-.74.11-1.05.32-.42.28-.71.71-.81,1.21-.1.5,0,1,.29,1.42l7.91,11.81Z"/>
      <path class="cls-22" d="M146.44,43.42c-.28.42-.38.93-.28,1.43l10.32,51.56c.18.88.96,1.52,1.85,1.53h0c.12,0,.25-.01.37-.04,1.03-.21,1.69-1.21,1.49-2.23l-10.32-51.56c-.18-.88-.96-1.53-1.86-1.53-.12,0-.25.01-.37.04-.5.1-.93.39-1.21.81Z"/>
      <path class="cls-24" d="M142.32,16.01c-1.03.21-1.69,1.21-1.49,2.23l2.79,13.94c.18.88.96,1.52,1.85,1.53h.01c.12,0,.25-.01.37-.04,1.03-.21,1.69-1.21,1.49-2.23l-2.79-13.94c-.18-.88-.96-1.53-1.86-1.53-.12,0-.25.01-.37.04Z"/>
      <path class="cls-35" d="M188.91,97.85c.12.02.24.04.36.04h0c.9,0,1.69-.64,1.86-1.53l10.19-51.58c.1-.5,0-1-.28-1.42-.28-.42-.71-.71-1.21-.81-.13-.03-.25-.04-.37-.04-.9,0-1.68.64-1.86,1.53l-10.19,51.58c-.1.5,0,1,.29,1.43.28.42.71.71,1.21.81Z"/>
      <path class="cls-36" d="M201.61,33.6c.12.02.24.04.36.04h0c.9,0,1.69-.64,1.86-1.53l2.76-13.95c.1-.5,0-1-.28-1.43-.28-.42-.71-.71-1.21-.81-.13-.03-.25-.04-.37-.04-.9,0-1.68.64-1.86,1.53l-2.76,13.95c-.2,1.03.47,2.03,1.49,2.23Z"/>
      <path class="cls-37" d="M215.11,76.24c.15.02.29.03.44.03,1.68,0,3.11-1.26,3.33-2.93.24-1.84-1.06-3.53-2.9-3.77-.15-.02-.29-.03-.44-.03-1.68,0-3.11,1.26-3.33,2.93-.12.89.12,1.77.67,2.49.55.71,1.34,1.17,2.23,1.28Z"/>
      <path class="cls-38" d="M209.71,82.1l-7.33,17.71c-.19.47-.19.98,0,1.45.19.47.56.83,1.03,1.03.23.09.47.14.72.14h0c.77,0,1.46-.46,1.75-1.17l7.33-17.71c.19-.47.19-.98,0-1.45-.19-.47-.56-.83-1.03-1.03-.23-.1-.48-.14-.73-.14-.77,0-1.46.46-1.75,1.17Z"/>
      <path class="cls-23" d="M248.06,94.9c-.45.78-.57,1.68-.33,2.55.23.87.79,1.59,1.57,2.04.51.29,1.09.45,1.67.45,1.2,0,2.32-.65,2.92-1.69.92-1.61.37-3.67-1.24-4.59-.51-.29-1.09-.45-1.67-.45-1.2,0-2.32.65-2.92,1.69Z"/>
      <path class="cls-26" d="M245.3,104.18c0-.51-.2-.98-.56-1.34-.36-.36-.84-.56-1.34-.56s-.98.2-1.34.56l-13.55,13.56c-.74.74-.74,1.95,0,2.68.36.36.83.55,1.33.56h0c.51,0,.98-.2,1.34-.56l13.55-13.56c.36-.36.56-.84.56-1.34Z"/>
      <path class="cls-25" d="M274.64,135.36c.75,0,1.46-.24,2.05-.7,1.47-1.13,1.75-3.25.62-4.71-.64-.83-1.61-1.31-2.67-1.31-.75,0-1.46.24-2.05.7-.71.55-1.17,1.34-1.28,2.23-.12.89.12,1.77.67,2.48.64.83,1.61,1.31,2.67,1.31Z"/>
      <path class="cls-27" d="M266.49,136.86c.19-.47.19-.98,0-1.45-.29-.71-.98-1.17-1.75-1.17-.25,0-.49.05-.73.15l-17.71,7.34c-.47.19-.83.56-1.03,1.03-.19.47-.19.98,0,1.45.29.71.98,1.17,1.74,1.17h.01c.25,0,.49-.05.73-.14l17.71-7.34c.47-.19.83-.56,1.03-1.03Z"/>
      <path class="cls-28" d="M72.88,135.36c1.68,0,3.11-1.26,3.33-2.93.12-.89-.12-1.77-.67-2.49-.55-.71-1.34-1.17-2.23-1.28-.15-.02-.29-.03-.44-.03-1.68,0-3.11,1.26-3.33,2.93-.24,1.84,1.06,3.53,2.9,3.77.15.02.29.03.44.03Z"/>
      <path class="cls-44" d="M100.5,145.31h0c.77,0,1.46-.46,1.76-1.17.19-.47.19-.98,0-1.45-.19-.47-.56-.83-1.03-1.03l-17.71-7.33c-.23-.1-.48-.15-.73-.15-.77,0-1.46.46-1.75,1.17-.19.47-.19.98,0,1.45.19.47.56.83,1.03,1.03l17.71,7.33c.23.09.47.14.72.14Z"/>
      <path class="cls-30" d="M93.63,94.9c-.92,1.61-.37,3.67,1.24,4.59.51.29,1.09.45,1.67.45,1.2,0,2.32-.65,2.92-1.69.45-.78.57-1.68.33-2.55-.23-.87-.79-1.59-1.57-2.04-.51-.29-1.09-.45-1.67-.45-1.2,0-2.32.65-2.92,1.69Z"/>
      <path class="cls-45" d="M104.15,102.25c-.51,0-.98.2-1.34.56-.36.36-.56.84-.55,1.34,0,.51.2.98.56,1.34l13.56,13.55c.36.36.83.55,1.33.56h0c.51,0,.98-.2,1.34-.56.36-.36.56-.84.56-1.34,0-.51-.2-.98-.56-1.34l-13.56-13.55c-.36-.36-.83-.56-1.34-.56Z"/>
      <path class="cls-43" d="M128.64,72.47c-.12.89.12,1.77.67,2.48.64.83,1.61,1.31,2.67,1.31.75,0,1.46-.24,2.05-.7.71-.55,1.17-1.34,1.28-2.23.12-.89-.12-1.77-.67-2.49-.64-.83-1.61-1.31-2.67-1.31-.75,0-1.46.24-2.05.7-.71.55-1.17,1.34-1.28,2.23Z"/>
      <path class="cls-29" d="M134.35,83.53l7.34,17.71c.29.71.98,1.17,1.74,1.17h.01c.25,0,.49-.05.72-.14.47-.19.83-.56,1.03-1.03.19-.47.19-.98,0-1.45l-7.34-17.71c-.3-.71-.98-1.17-1.76-1.17-.25,0-.49.05-.73.15-.97.4-1.43,1.51-1.03,2.48Z"/>
      <path class="cls-46" d="M176.67,66.27c.45-.78.57-1.68.33-2.55-.39-1.47-1.73-2.49-3.24-2.49-.29,0-.59.04-.88.12-1.79.48-2.85,2.33-2.37,4.12.39,1.47,1.73,2.49,3.25,2.49.29,0,.59-.04.88-.12.87-.23,1.59-.79,2.04-1.57Z"/>
      <path class="cls-34" d="M173.78,73.42c-1.05,0-1.9.85-1.9,1.9v19.17c0,1.04.85,1.89,1.9,1.9h0c1.05,0,1.9-.85,1.9-1.9v-19.17c0-1.04-.86-1.89-1.91-1.9Z"/>
      <path class="cls-32" d="M346.02,171.44l-8.61-1.83c-14.83-3.14-29.88-3.14-44.71,0l-26.66,5.65c-14.32,3.03-28.85,3.03-43.17,0l-26.66-5.65c-14.84-3.14-29.88-3.14-44.72,0l-26.65,5.65c-14.32,3.03-28.85,3.03-43.17,0l-26.66-5.65c-14.84-3.14-29.88-3.14-44.72,0l-8.59,1.82c-1.01.21-1.66,1.21-1.44,2.22.21,1.01,1.21,1.66,2.22,1.44l8.59-1.82c14.32-3.03,28.85-3.03,43.17,0l26.66,5.65c14.84,3.14,29.88,3.14,44.72,0l26.65-5.65c14.32-3.03,28.85-3.03,43.17,0l26.66,5.65c7.42,1.57,14.89,2.35,22.36,2.35,7.47,0,14.94-.78,22.36-2.35l26.66-5.65c14.32-3.03,28.84-3.03,43.16,0l8.61,1.82c1.01.21,2-.43,2.22-1.44.21-1.01-.43-2-1.44-2.22Z"/>
      <path class="cls-31" d="M346.02,189.39l-8.61-1.83c-14.83-3.15-29.88-3.15-44.71,0l-26.66,5.64c-14.32,3.03-28.85,3.03-43.17,0l-26.66-5.64c-14.84-3.14-29.88-3.14-44.72,0l-26.66,5.64c-14.32,3.03-28.85,3.03-43.17,0l-26.66-5.64c-14.84-3.14-29.88-3.14-44.72,0l-8.59,1.82c-1.01.21-1.66,1.21-1.44,2.22.21,1.01,1.21,1.66,2.22,1.44l8.59-1.82c14.32-3.03,28.85-3.03,43.17,0l26.66,5.64c14.84,3.14,29.88,3.14,44.72,0l26.66-5.64c14.32-3.03,28.85-3.03,43.17,0l26.66,5.64c7.42,1.57,14.89,2.35,22.36,2.35s14.94-.78,22.36-2.35l26.66-5.64c14.32-3.04,28.84-3.04,43.16,0l8.61,1.83c1.01.21,2-.43,2.22-1.44.21-1.01-.43-2-1.44-2.22Z"/>
      <path class="cls-33" d="M346.02,207.34l-8.61-1.83c-14.83-3.15-29.88-3.15-44.71,0l-26.66,5.64c-14.32,3.04-28.85,3.04-43.17,0l-26.66-5.64c-14.84-3.14-29.88-3.14-44.72,0l-26.66,5.64c-14.32,3.04-28.85,3.04-43.17,0l-26.66-5.64c-14.84-3.14-29.88-3.14-44.72,0l-8.59,1.82c-1.01.21-1.66,1.21-1.44,2.22.21,1.01,1.21,1.66,2.22,1.44l8.59-1.82c14.32-3.04,28.85-3.03,43.17,0l26.66,5.64c14.84,3.14,29.88,3.14,44.72,0l26.66-5.64c14.32-3.04,28.85-3.03,43.17,0l26.66,5.64c7.42,1.57,14.89,2.36,22.36,2.36,7.47,0,14.94-.79,22.36-2.36l26.66-5.64c14.32-3.04,28.84-3.04,43.16,0l8.61,1.83c1.01.21,2-.43,2.22-1.44.21-1.01-.43-2-1.44-2.22Z"/>
      <rect class="cls-40" x="124.36" y="59.03" width="5.66" height="5.66" transform="translate(31.39 165.9) rotate(-73.3)"/>
      <rect class="cls-39" x="85.14" y="85.19" width="5.66" height="5.66"/>
      <rect class="cls-41" x="256.7" y="85.19" width="5.66" height="5.66"/>
      <rect class="cls-47" x="170.91" y="49.65" width="5.66" height="5.66" transform="translate(13.78 138.22) rotate(-45)"/>
      <rect class="cls-42" x="217.32" y="58.88" width="5.66" height="5.66" transform="translate(-6.8 89.43) rotate(-22.62)"/>
      <rect class="cls-48" x="58.86" y="124.63" width="5.66" height="5.66" transform="translate(-45.02 34.38) rotate(-23.08)"/>
      <rect class="cls-11" x="283.04" y="124.54" width="5.66" height="5.66" transform="translate(56.65 340.45) rotate(-66.92)"/>
      <rect class="cls-12" x="1.13" y="137.4" width="5.66" height="5.66" transform="translate(-82.08 29.42) rotate(-36.21)"/>
      <rect class="cls-13" x="340.92" y="136.94" width="5.66" height="5.66" transform="translate(27.9 334.55) rotate(-53.79)"/>
      <rect class="cls-10" x="314.99" y="74.58" width="5.66" height="5.66" transform="translate(183.59 375.71) rotate(-79.46)"/>
      <rect class="cls-17" x="26.96" y="74.93" width="5.66" height="5.66" transform="translate(-13.72 6.76) rotate(-10.54)"/>
      <rect class="cls-15" x="74.69" y="27.05" width="5.66" height="5.66" transform="translate(41.4 104.7) rotate(-85.31)"/>
      <rect class="cls-18" x="267.18" y="26.85" width="5.66" height="5.66" transform="translate(-1.52 22.19) rotate(-4.69)"/>
      <rect class="cls-16" x="204.7" y="1.04" width="5.66" height="5.66" transform="translate(25.87 104.28) rotate(-30)"/>
      <rect class="cls-14" x="137.06" y="1.08" width="5.66" height="5.66" transform="translate(66.56 123.1) rotate(-60)"/>
    </g>
  </g>
</svg>